<?xml version="1.0" encoding="UTF-8"?>
<!DOCTYPE svg PUBLIC "-//W3C//DTD SVG 1.1//EN" "http://www.w3.org/Graphics/SVG/1.1/DTD/svg11.dtd">
<svg xmlns="http://www.w3.org/2000/svg" version="1.1" width="880px" height="222px" style="shape-rendering:geometricPrecision; text-rendering:geometricPrecision; image-rendering:optimizeQuality; fill-rule:evenodd; clip-rule:evenodd" xmlns:xlink="http://www.w3.org/1999/xlink">
<g><path style="opacity:1" fill="#fefdfd" d="M -0.5,-0.5 C 292.833,-0.5 586.167,-0.5 879.5,-0.5C 879.5,73.5 879.5,147.5 879.5,221.5C 586.167,221.5 292.833,221.5 -0.5,221.5C -0.5,147.5 -0.5,73.5 -0.5,-0.5 Z"/></g>
<g><path style="opacity:1" fill="#ff0301" d="M 103.5,26.5 C 127.833,26.5 152.167,26.5 176.5,26.5C 184.933,28.2458 193.6,28.9124 202.5,28.5C 211.839,28.8336 221.172,29.3336 230.5,30C 245.817,32.6522 255.317,41.4855 259,56.5C 263.635,92.1567 263.635,127.823 259,163.5C 255.044,180.07 244.544,189.07 227.5,190.5C 221.516,191.074 215.516,191.407 209.5,191.5C 201.097,190.866 193.097,191.533 185.5,193.5C 151.832,193.667 118.165,193.5 84.5,193C 74.1448,192.022 63.8114,190.856 53.5,189.5C 49.6748,188.836 46.0081,187.669 42.5,186C 39,182.5 35.5,179 32,175.5C 26.406,153.899 23.906,131.899 24.5,109.5C 24.3619,96.7782 25.0285,84.1115 26.5,71.5C 27.889,66.7312 28.5557,61.7312 28.5,56.5C 33.1662,37.8243 45.1662,28.8243 64.5,29.5C 77.6991,29.132 90.6991,28.132 103.5,26.5 Z"/></g>
<g><path style="opacity:1" fill="#f47f7c" d="M 103.5,26.5 C 90.6991,28.132 77.6991,29.132 64.5,29.5C 64.9175,28.7784 65.5842,28.2784 66.5,28C 78.8411,27.5861 91.1744,27.0861 103.5,26.5 Z"/></g>
<g><path style="opacity:1" fill="#ff5c5a" d="M 176.5,26.5 C 185.358,26.6081 194.025,27.2747 202.5,28.5C 193.6,28.9124 184.933,28.2458 176.5,26.5 Z"/></g>
<g><path style="opacity:1" fill="#020102" d="M 352.5,81.5 C 350.928,84.2154 349.928,87.2154 349.5,90.5C 349.5,90.8333 349.5,91.1667 349.5,91.5C 347.928,94.2154 346.928,97.2154 346.5,100.5C 346.5,100.833 346.5,101.167 346.5,101.5C 344.928,104.215 343.928,107.215 343.5,110.5C 343.5,110.833 343.5,111.167 343.5,111.5C 341.928,114.215 340.928,117.215 340.5,120.5C 340.5,120.833 340.5,121.167 340.5,121.5C 339.732,122.263 339.232,123.263 339,124.5C 338.5,140.163 338.333,155.83 338.5,171.5C 328.833,171.5 319.167,171.5 309.5,171.5C 309.667,156.163 309.5,140.83 309,125.5C 307.12,117.958 304.953,110.624 302.5,103.5C 302.279,100.933 301.612,98.5994 300.5,96.5C 300.279,93.9327 299.612,91.5994 298.5,89.5C 298.737,88.209 298.404,87.209 297.5,86.5C 297.741,84.1016 297.074,82.1016 295.5,80.5C 294.072,72.9009 292.072,65.5676 289.5,58.5C 289.279,55.9327 288.612,53.5994 287.5,51.5C 287.167,49.5 286.833,47.5 286.5,45.5C 296.5,45.5 306.5,45.5 316.5,45.5C 319.323,61.4387 321.823,77.4387 324,93.5C 326.415,77.342 329.582,61.342 333.5,45.5C 343.19,45.1682 352.856,45.5016 362.5,46.5C 359.899,58.3061 356.566,69.9728 352.5,81.5 Z"/></g>
<g><path style="opacity:1" fill="#010002" d="M 579.5,170.5 C 579.59,167.848 578.924,165.515 577.5,163.5C 577.737,162.209 577.404,161.209 576.5,160.5C 576.59,157.848 575.924,155.515 574.5,153.5C 574.737,152.209 574.404,151.209 573.5,150.5C 573.59,147.848 572.924,145.515 571.5,143.5C 571.279,140.933 570.612,138.599 569.5,136.5C 568.08,129.659 566.08,122.993 563.5,116.5C 562.5,134.821 562.167,153.155 562.5,171.5C 553.5,171.5 544.5,171.5 535.5,171.5C 535.5,129.5 535.5,87.5 535.5,45.5C 544.833,45.5 554.167,45.5 563.5,45.5C 569.226,63.8456 575.059,82.1789 581,100.5C 581.5,82.1697 581.667,63.8364 581.5,45.5C 590.5,45.5 599.5,45.5 608.5,45.5C 608.5,87.5 608.5,129.5 608.5,171.5C 598.652,171.827 588.986,171.494 579.5,170.5 Z"/></g>
<g><path style="opacity:1" fill="#010002" d="M 785.5,45.5 C 795.833,45.5 806.167,45.5 816.5,45.5C 816.334,55.1724 816.5,64.8391 817,74.5C 827.299,64.3192 838.799,62.8192 851.5,70C 853.359,71.5578 854.859,73.3911 856,75.5C 857.641,102.771 857.974,130.105 857,157.5C 851.579,171.095 841.745,175.928 827.5,172C 823.718,170.046 820.385,167.546 817.5,164.5C 815.95,166.333 814.95,168.499 814.5,171C 804.839,171.5 795.172,171.666 785.5,171.5C 785.5,129.5 785.5,87.5 785.5,45.5 Z"/></g>
<g><path style="opacity:1" fill="#e0a96b" d="M 287.5,51.5 C 288.612,53.5994 289.279,55.9327 289.5,58.5C 287.837,56.5615 287.171,54.2282 287.5,51.5 Z"/></g>
<g><path style="opacity:1" fill="#020102" d="M 367.5,143.5 C 367.319,125.486 367.652,107.486 368.5,89.5C 371.48,78.3497 378.48,70.8497 389.5,67C 403.387,63.5926 416.387,65.5926 428.5,73C 433.648,77.4662 437.148,82.9662 439,89.5C 439.667,108.833 439.667,128.167 439,147.5C 434.102,165.644 422.102,174.311 403,173.5C 381.229,175.055 369.395,165.055 367.5,143.5 Z"/></g>
<g><path style="opacity:1" fill="#020102" d="M 620.5,143.5 C 620.319,125.486 620.652,107.486 621.5,89.5C 624.48,78.3497 631.48,70.8497 642.5,67C 656.387,63.5926 669.387,65.5926 681.5,73C 686.648,77.4662 690.148,82.9662 692,89.5C 692.667,108.833 692.667,128.167 692,147.5C 687.102,165.644 675.102,174.311 656,173.5C 634.229,175.055 622.395,165.055 620.5,143.5 Z"/></g>
<g><path style="opacity:1" fill="#020102" d="M 702.5,143.5 C 702.319,125.486 702.652,107.486 703.5,89.5C 706.48,78.3497 713.48,70.8497 724.5,67C 738.387,63.5926 751.387,65.5926 763.5,73C 768.648,77.4662 772.148,82.9662 774,89.5C 774.667,108.833 774.667,128.167 774,147.5C 769.102,165.644 757.102,174.311 738,173.5C 716.229,175.055 704.395,165.055 702.5,143.5 Z"/></g>
<g><path style="opacity:1" fill="#010104" d="M 450.5,67.5 C 460.833,67.5 471.167,67.5 481.5,67.5C 481.333,96.1686 481.5,124.835 482,153.5C 485,156.167 488,156.167 491,153.5C 491.5,124.835 491.667,96.1686 491.5,67.5C 501.833,67.5 512.167,67.5 522.5,67.5C 522.5,102.167 522.5,136.833 522.5,171.5C 512.167,171.5 501.833,171.5 491.5,171.5C 491.664,168.813 491.497,166.146 491,163.5C 481.881,174.059 471.048,176.226 458.5,170C 454.339,166.846 451.839,162.679 451,157.5C 450.5,127.502 450.333,97.5019 450.5,67.5 Z"/></g>
<g><path style="opacity:1" fill="#fd655f" d="M 28.5,56.5 C 28.5557,61.7312 27.889,66.7312 26.5,71.5C 26.4443,66.2688 27.111,61.2688 28.5,56.5 Z"/></g>
<g><path style="opacity:1" fill="#ff9898" d="M 122.5,76.5 C 121.168,87.4797 120.501,98.8131 120.5,110.5C 120.501,122.187 121.168,133.52 122.5,144.5C 121.791,145.404 120.791,145.737 119.5,145.5C 119.5,121.833 119.5,98.1667 119.5,74.5C 121.179,74.2852 122.179,74.9519 122.5,76.5 Z"/></g>
<g><path style="opacity:1" fill="#fffbfb" d="M 122.5,76.5 C 140.459,86.627 158.292,96.9603 176,107.5C 177.44,108.148 178.94,108.481 180.5,108.5C 180.719,109.675 180.386,110.675 179.5,111.5C 160.241,122.288 141.241,133.288 122.5,144.5C 121.168,133.52 120.501,122.187 120.5,110.5C 120.501,98.8131 121.168,87.4797 122.5,76.5 Z"/></g>
<g><path style="opacity:1" fill="#f3eeee" d="M 400.5,83.5 C 403.365,83.0548 405.865,83.7215 408,85.5C 408.667,107.833 408.667,130.167 408,152.5C 406.27,155.548 403.77,156.214 400.5,154.5C 400,153.5 399.5,152.5 399,151.5C 398.333,129.5 398.333,107.5 399,85.5C 399.717,84.9558 400.217,84.2891 400.5,83.5 Z"/></g>
<g><path style="opacity:1" fill="#f3eeee" d="M 653.5,83.5 C 656.365,83.0548 658.865,83.7215 661,85.5C 661.667,107.833 661.667,130.167 661,152.5C 659.27,155.548 656.77,156.214 653.5,154.5C 653,153.5 652.5,152.5 652,151.5C 651.333,129.5 651.333,107.5 652,85.5C 652.717,84.9558 653.217,84.2891 653.5,83.5 Z"/></g>
<g><path style="opacity:1" fill="#f3eeee" d="M 735.5,83.5 C 738.365,83.0548 740.865,83.7215 743,85.5C 743.667,107.833 743.667,130.167 743,152.5C 741.27,155.548 738.77,156.214 735.5,154.5C 735,153.5 734.5,152.5 734,151.5C 733.333,129.5 733.333,107.5 734,85.5C 734.717,84.9558 735.217,84.2891 735.5,83.5 Z"/></g>
<g><path style="opacity:1" fill="#f5f2ee" d="M 818.5,83.5 C 821.695,82.9607 824.195,83.9607 826,86.5C 826.667,108.5 826.667,130.5 826,152.5C 823.532,155.893 820.698,156.227 817.5,153.5C 816.334,130.841 816.167,108.174 817,85.5C 817.717,84.9558 818.217,84.2891 818.5,83.5 Z"/></g>
<g><path style="opacity:1" fill="#4878bb" d="M 352.5,81.5 C 352.472,84.9164 351.472,87.9164 349.5,90.5C 349.928,87.2154 350.928,84.2154 352.5,81.5 Z"/></g>
<g><path style="opacity:1" fill="#dea767" d="M 295.5,80.5 C 297.074,82.1016 297.741,84.1016 297.5,86.5C 295.926,84.8984 295.259,82.8984 295.5,80.5 Z"/></g>
<g><path style="opacity:1" fill="#dba365" d="M 298.5,89.5 C 299.612,91.5994 300.279,93.9327 300.5,96.5C 298.837,94.5615 298.171,92.2282 298.5,89.5 Z"/></g>
<g><path style="opacity:1" fill="#4878bb" d="M 349.5,91.5 C 349.472,94.9164 348.472,97.9164 346.5,100.5C 346.928,97.2154 347.928,94.2154 349.5,91.5 Z"/></g>
<g><path style="opacity:1" fill="#e0a96b" d="M 300.5,96.5 C 301.612,98.5994 302.279,100.933 302.5,103.5C 300.837,101.562 300.171,99.2282 300.5,96.5 Z"/></g>
<g><path style="opacity:1" fill="#4878bb" d="M 346.5,101.5 C 346.472,104.916 345.472,107.916 343.5,110.5C 343.928,107.215 344.928,104.215 346.5,101.5 Z"/></g>
<g><path style="opacity:1" fill="#f1b066" d="M 368.5,89.5 C 367.652,107.486 367.319,125.486 367.5,143.5C 366.834,136.007 366.5,128.341 366.5,120.5C 366.281,109.951 366.947,99.6174 368.5,89.5 Z"/></g>
<g><path style="opacity:1" fill="#f1b066" d="M 621.5,89.5 C 620.652,107.486 620.319,125.486 620.5,143.5C 619.834,136.007 619.5,128.341 619.5,120.5C 619.281,109.951 619.947,99.6174 621.5,89.5 Z"/></g>
<g><path style="opacity:1" fill="#f1b066" d="M 703.5,89.5 C 702.652,107.486 702.319,125.486 702.5,143.5C 701.834,136.007 701.5,128.341 701.5,120.5C 701.281,109.951 701.947,99.6174 703.5,89.5 Z"/></g>
<g><path style="opacity:1" fill="#4878bb" d="M 343.5,111.5 C 343.472,114.916 342.472,117.916 340.5,120.5C 340.928,117.215 341.928,114.215 343.5,111.5 Z"/></g>
<g><path style="opacity:1" fill="#0f3f93" d="M 340.5,121.5 C 339.891,138.314 339.224,154.981 338.5,171.5C 338.333,155.83 338.5,140.163 339,124.5C 339.232,123.263 339.732,122.263 340.5,121.5 Z"/></g>
<g><path style="opacity:1" fill="#e0a96b" d="M 569.5,136.5 C 570.612,138.599 571.279,140.933 571.5,143.5C 569.837,141.562 569.171,139.228 569.5,136.5 Z"/></g>
<g><path style="opacity:1" fill="#d29855" d="M 571.5,143.5 C 572.924,145.515 573.59,147.848 573.5,150.5C 572.076,148.485 571.41,146.152 571.5,143.5 Z"/></g>
<g><path style="opacity:1" fill="#d29855" d="M 574.5,153.5 C 575.924,155.515 576.59,157.848 576.5,160.5C 575.076,158.485 574.41,156.152 574.5,153.5 Z"/></g>
<g><path style="opacity:1" fill="#d29855" d="M 577.5,163.5 C 578.924,165.515 579.59,167.848 579.5,170.5C 578.076,168.485 577.41,166.152 577.5,163.5 Z"/></g>
<g><path style="opacity:1" fill="#ff4f4c" d="M 209.5,191.5 C 209.5,191.833 209.5,192.167 209.5,192.5C 201.51,193.023 193.51,193.356 185.5,193.5C 193.097,191.533 201.097,190.866 209.5,191.5 Z"/></g>
<g><path style="opacity:1" fill="#de9c9b" d="M 227.5,190.5 C 221.75,192.15 215.75,192.816 209.5,192.5C 209.5,192.167 209.5,191.833 209.5,191.5C 215.516,191.407 221.516,191.074 227.5,190.5 Z"/></g>
</svg>
